<svg xmlns="http://www.w3.org/2000/svg" viewBox="0 0 24 24" fill="none" stroke="currentColor" stroke-width="2" stroke-linecap="round" stroke-linejoin="round">
  <path d="M12 3a6 6 0 0 0 9 9 9 9 0 1 1-9-9Z" />
  <path fill="currentColor" stroke="none" d="M10 1.5L10.6 2.8L12 3.2L10.6 3.6L10 5L9.4 3.6L8 3.2L9.4 2.8Z" />
  <path fill="currentColor" stroke="none" d="M19 4.5L19.5 5.6L20.6 6L19.5 6.4L19 7.5L18.5 6.4L17.4 6L18.5 5.6Z" />
  <path fill="currentColor" stroke="none" d="M7.5 14.5L8 15.5L9 15.9L8 16.3L7.5 17.5L7 16.3L6 15.9L7 15.5Z" />
  <path fill="currentColor" stroke="none" d="M20.5 12.5L21 13.4L21.9 13.8L21 14.2L20.5 15.2L20 14.2L19.1 13.8L20 13.4Z" />
</svg>
